<?xml version="1.0" encoding="UTF-8"?>
<svg width="240px" height="64px" viewBox="0 0 240 64" version="1.1" xmlns="http://www.w3.org/2000/svg" xmlns:xlink="http://www.w3.org/1999/xlink">
    <!-- Generator: Sketch 52 (66869) - http://www.bohemiancoding.com/sketch -->
    <title>logo1</title>
    <desc>Created with Sketch.</desc>
    <g id="组件" stroke="none" stroke-width="1" fill="none" fill-rule="evenodd">
        <g id="logo">
            <g id="分组">
                <g transform="translate(20.000000, 15.000000)">
                    <path d="M59.5458384,8.48082192 L59.5458384,25.7534247 L57.4536517,25.7534247 L57.4536517,10.8972603 L51.8784496,23.8917808 L49.6673887,23.8917808 L44.0921867,10.9958904 L44.0921867,25.7534247 L42,25.7534247 L42,8.48082192 L45.1977172,8.48082192 L50.7729192,21.3643836 L56.3481212,8.48082192 L59.5458384,8.48082192 Z M73.4144967,14.0410959 L73.4144967,25.7534247 L71.4649591,25.7534247 L71.4649591,24.1876712 C70.5734022,25.2849315 69.2538981,26 67.4826719,26 C64.3087296,26 61.8361453,23.4356164 61.8361453,19.8972603 C61.8361453,16.3589041 64.3087296,13.7945205 67.4826719,13.7945205 C69.2538981,13.7945205 70.5734022,14.509589 71.4649591,15.6191781 L71.4649591,14.0410959 L73.4144967,14.0410959 Z M67.708533,15.6931507 C65.3548229,15.6931507 63.8213452,17.5671233 63.8213452,19.8972603 C63.8213452,22.2273973 65.3904852,24.1136986 67.708533,24.1136986 C69.9909184,24.1136986 71.5838333,22.3013699 71.5838333,19.8972603 C71.5838333,17.5054795 69.9909184,15.6931507 67.708533,15.6931507 Z M84.6916977,15.0767123 L83.8476906,16.6424658 C83.1344451,16.1369863 81.6960667,15.5575342 80.2101387,15.5575342 C78.6647735,15.5575342 77.6662299,16.2356164 77.6662299,17.2958904 C77.6662299,18.2328767 78.4864622,18.6643836 79.853516,18.8369863 L81.1611327,19.009589 C83.5623924,19.3424658 84.9769959,20.390411 84.9769959,22.3260274 C84.9769959,24.5575342 83.0512331,26 79.9723902,26 C78.5815616,26 76.7033485,25.6547945 75.2174205,24.4958904 L76.1208647,22.9917808 C76.9648719,23.669863 78.0941772,24.2369863 79.9842776,24.2369863 C81.8387158,24.2369863 82.9799086,23.6082192 82.9799086,22.4493151 C82.9799086,21.5863014 82.2428883,21.0438356 80.7094105,20.8465753 L79.4017938,20.6863014 C76.8697725,20.3657534 75.6453677,19.1821918 75.6453677,17.4068493 C75.6453677,15.1630137 77.4403688,13.8068493 80.1863639,13.8068493 C81.9694775,13.8068493 83.5980546,14.3 84.6916977,15.0767123 Z M94.4354215,14.0410959 L94.4354215,15.8780822 L89.6923391,15.8780822 L89.6923391,21.5863014 C89.6923391,23.3493151 90.5957834,24.1136986 91.8201881,24.1136986 C92.6523078,24.1136986 93.4844275,23.7808219 94.1263484,23.3246575 L95.0416801,24.8410959 C94.1738981,25.4945205 93.0445928,26 91.6537642,26 C89.2049547,26 87.7428015,24.6068493 87.7428015,21.6232877 L87.7428015,15.8780822 L85.3296544,15.8780822 L85.3296544,14.0410959 L87.7428015,14.0410959 L87.7428015,10.3671233 L89.6923391,10.3671233 L89.6923391,14.0410959 L94.4354215,14.0410959 Z M100.993316,13.7945205 C104.072159,13.7945205 106.28322,16.2726027 106.306994,19.860274 C106.306994,20.1191781 106.28322,20.390411 106.271332,20.6123288 L97.3914261,20.6123288 C97.6648369,23.0410959 99.293414,24.2369863 101.231064,24.2369863 C102.550568,24.2369863 103.751198,23.7068493 104.71408,22.8438356 L105.748285,24.2246575 C104.345569,25.5808219 102.776429,26 101.11219,26 C97.7599363,26 95.3824514,23.5465753 95.3824514,19.8972603 C95.3824514,16.2972603 97.7480488,13.7945205 100.993316,13.7945205 Z M100.957653,15.5821918 C98.9605661,15.5821918 97.7123866,16.9876712 97.4152009,18.9849315 L104.321795,18.9849315 C104.084046,16.9136986 102.788317,15.5821918 100.957653,15.5821918 Z M113.494922,13.7945205 C114.303267,13.7945205 114.957075,13.9054795 115.563333,14.1767123 L115.087837,16.1616438 C114.552902,15.8657534 113.792107,15.7054795 113.150186,15.7054795 C111.42651,15.7054795 110.213993,17.0739726 110.213993,19.2315068 L110.213993,25.7534247 L108.276342,25.7534247 L108.276342,14.0410959 L110.190218,14.0410959 L110.190218,15.5821918 C110.974788,14.4356164 112.151643,13.7945205 113.494922,13.7945205 Z M118.887848,8 L118.887848,25.7534247 L116.950198,25.7534247 L116.950198,8 L118.887848,8 Z M123.650742,14.0410959 L123.650742,25.7534247 L121.713092,25.7534247 L121.713092,14.0410959 L123.650742,14.0410959 Z M122.664086,8.48082192 C123.436769,8.48082192 124.054915,9.10958904 124.054915,9.92328767 C124.054915,10.7246575 123.436769,11.3287671 122.664086,11.3287671 C121.891404,11.3287671 121.297032,10.7246575 121.297032,9.92328767 C121.297032,9.10958904 121.891404,8.48082192 122.664086,8.48082192 Z M132.098738,13.7945205 C134.880395,13.7945205 136.806158,15.6684932 136.806158,18.4794521 L136.806158,25.7534247 L134.85662,25.7534247 L134.85662,19.1328767 C134.85662,16.9753425 133.715428,15.7054795 131.754002,15.7054795 C129.935227,15.7054795 128.413636,17 128.413636,19.1821918 L128.413636,25.7534247 L126.475986,25.7534247 L126.475986,14.0410959 L128.401749,14.0410959 L128.401749,15.569863 C129.328968,14.2506849 130.791121,13.7945205 132.098738,13.7945205 Z M141.450176,8 L141.450176,18.7260274 L142.995541,18.7260274 L147.191802,14.0410959 L149.640612,14.0410959 L144.600344,19.5643836 L149.711936,25.7534247 L147.251239,25.7534247 L142.983654,20.5506849 L141.450176,20.5506849 L141.450176,25.7534247 L139.512526,25.7534247 L139.512526,8 L141.450176,8 Z M168.980229,21.9068493 L169.94311,22.8684932 C168.42152,24.8164384 166.139134,25.9506849 163.630888,25.9506849 C159.149329,25.9506849 155.82085,22.6342466 155.82085,17.9 C155.82085,12.4506849 159.7437,8.30821918 164.974167,8.30821918 C166.721618,8.30821918 169.907448,8.83835616 171.583575,11.8835616 L170.466157,12.7958904 C169.241752,10.5150685 166.840492,9.75068493 164.890955,9.75068493 C160.599595,9.75068493 157.34244,13.2643836 157.34244,17.7767123 C157.34244,21.7342466 160.076548,24.4958904 163.725987,24.4958904 C165.806287,24.4958904 167.732049,23.5219178 168.980229,21.9068493 Z M178.885194,18.7260274 L174.37986,18.7260274 L172.941481,25.7534247 L171.467441,25.7534247 L175.009893,8.49315068 L180.56132,8.49315068 C183.84225,8.49315068 185.73235,10.1945205 185.73235,12.8821918 C185.73235,16.1246575 183.521289,18.7260274 178.885194,18.7260274 Z M180.430559,9.9109589 L176.186748,9.9109589 L174.677045,17.2958904 L178.944631,17.2958904 C182.665395,17.2958904 184.222647,15.3726027 184.222647,13.0178082 C184.222647,11.0205479 182.831819,9.9109589 180.430559,9.9109589 Z M200,10.330137 L199.191655,11.5383562 C197.372879,10.1328767 195.316355,9.73835616 193.699665,9.73835616 C190.394961,9.73835616 189.075457,11.6369863 189.075457,13.3013699 C189.075457,14.9041096 190.145325,15.8657534 192.510923,16.2726027 L194.020626,16.5315068 C196.742846,17.0123288 198.668608,18.269863 198.668608,20.7479452 C198.668608,23.5712329 196.362448,25.9506849 192.023538,25.9506849 C190.311749,25.9506849 187.530092,25.4205479 185.50923,23.6821918 L186.377012,22.4616438 C188.076913,24.0150685 190.597047,24.5205479 192.082975,24.5205479 C195.411454,24.5205479 197.147018,22.8315068 197.147018,20.9205479 C197.147018,19.330137 195.922613,18.4054795 193.533241,17.9863014 L191.999763,17.7150685 C189.111119,17.209589 187.541979,15.7794521 187.541979,13.4863014 C187.541979,10.9712329 189.467742,8.30821918 193.782877,8.30821918 C195.672978,8.30821918 198.026688,8.76438356 200,10.330137 Z" id="Masterlink-CPS" fill="#FFFFFF"></path>
                    <g id="分组-2" transform="translate(0.000000, 1.000000)">
                        <polygon id="Fill-22" fill="#4A90E2" points="1.9805298 22.9023814 1.9805298 9.20433488 4.40247871 7.82945116 6.38015137 6.70666047 14.0454305 2.35540465 21.7574456 6.73345116 23.7389026 7.85828837 25.7209272 6.73475349 23.7396594 5.61010233 14.0454305 0.106846512 4.40512772 5.57940465 2.42726585 6.7020093 1.8921476e-05 8.08005581 1.8921476e-05 24.0266605 14.0454305 31.9998698 23.9646358 26.368986 23.9646358 24.1204279 14.0454305 29.7513116"></polygon>
                        <polyline id="Fill-24" fill="#FFFFFF" points="26.0111826 25.3298977 28.0248061 24.1868279 28.0248061 10.5509209 28.0248061 10.5447814 28.0248061 8.27743256 27.9188458 8.34050233 26.0289688 9.41157209 25.9368212 9.46385116 24.0469442 10.535107 24.0671902 10.5464558 14.0047493 16.2498977 3.89500473 10.479107 3.89500473 13.051386 14.0013434 18.8201302 26.044106 11.9938977"></polyline>
                    </g>
                </g>
            </g>
        </g>
    </g>
</svg>