<?xml version="1.0" encoding="UTF-8"?>
<svg width="246px" height="158px" viewBox="0 0 246 158" version="1.1" xmlns="http://www.w3.org/2000/svg" xmlns:xlink="http://www.w3.org/1999/xlink">
    <!-- Generator: Sketch 55.2 (78181) - https://sketchapp.com -->
    <title>logo</title>
    <desc>Created with Sketch.</desc>
    <g id="Page-1" stroke="none" stroke-width="1" fill="none" fill-rule="evenodd">
        <g id="登录页_plan3" transform="translate(-1447.000000, -200.000000)">
            <g id="Group-4" transform="translate(1220.000000, 0.000000)">
                <g id="logo" transform="translate(227.000000, 200.000000)">
                    <g id="logo_plan2" transform="translate(76.000000, 0.000000)">
                        <g id="分组">
                            <g transform="translate(0.216346, 0.000000)">
                                <polygon id="Fill-22" fill="#4A90E2" points="7.2337934 76.4130672 7.2337934 30.6643129 15.2314639 26.0726918 21.7627445 22.3229835 47.0746924 7.79036956 72.542237 22.4120626 79.085151 26.1684228 85.6303917 22.4164008 79.0874777 18.6600406 47.0746924 0.280252008 15.2404797 18.5573683 8.70919914 22.3073658 0.693496908 26.9093987 0.693496908 80.1679814 47.0746924 106.797707 79.830561 87.9910326 79.830561 80.480915 47.0746924 99.287589"></polygon>
                                <polyline id="Fill-24" fill="#333333" points="86.5888383 84.5207665 93.2381979 80.7033813 93.2381979 35.1617069 93.2381979 35.1411724 93.2381979 27.5688731 92.8886143 27.7788452 86.6475869 31.3567581 86.3433736 31.5308671 80.1026371 35.1084908 80.1689475 35.1466676 46.9407629 54.1951276 13.5561091 34.9219454 13.5561091 43.5125805 46.9291295 62.7791107 86.6979014 39.9812316"></polyline>
                            </g>
                        </g>
                    </g>
                    <g id="分组" transform="translate(0.000000, 130.000000)" fill="#333333">
                        <path d="M27.318204,0.747945205 L27.318204,27.6164384 L24.0607488,27.6164384 L24.0607488,4.50684932 L15.380371,24.7205479 L11.9378331,24.7205479 L3.25745522,4.66027397 L3.25745522,27.6164384 L0,27.6164384 L0,0.747945205 L4.97872417,0.747945205 L13.659102,20.7890411 L22.3394798,0.747945205 L27.318204,0.747945205 Z M48.9111784,9.39726027 L48.9111784,27.6164384 L45.8758223,27.6164384 L45.8758223,25.1808219 C44.4877022,26.8876712 42.4332844,28 39.6755525,28 C34.7338448,28 30.884125,24.0109589 30.884125,18.5068493 C30.884125,13.0027397 34.7338448,9.01369863 39.6755525,9.01369863 C42.4332844,9.01369863 44.4877022,10.1260274 45.8758223,11.8520548 L45.8758223,9.39726027 L48.9111784,9.39726027 Z M40.0272096,11.9671233 C36.3625724,11.9671233 33.9750058,14.8821918 33.9750058,18.5068493 C33.9750058,22.1315068 36.4180972,25.0657534 40.0272096,25.0657534 C43.5807971,25.0657534 46.060905,22.2465753 46.060905,18.5068493 C46.060905,14.7863014 43.5807971,11.9671233 40.0272096,11.9671233 Z M66.4693521,11.0082192 L65.155265,13.4438356 C64.0447689,12.6575342 61.8052685,11.7561644 59.4917349,11.7561644 C57.0856601,11.7561644 55.5309655,12.8109589 55.5309655,14.460274 C55.5309655,15.9178082 56.808036,16.5890411 58.9364869,16.8575342 L60.9723964,17.1260274 C64.7110666,17.6438356 66.9135505,19.2739726 66.9135505,22.2849315 C66.9135505,25.7561644 63.9152111,28 59.1215696,28 C56.9561022,28 54.0317958,27.4630137 51.7182623,25.660274 L53.1248906,23.3205479 C54.4389777,24.3753425 56.1972632,25.2575342 59.1400778,25.2575342 C62.0273677,25.2575342 63.8041615,24.2794521 63.8041615,22.4767123 C63.8041615,21.1342466 62.6566488,20.290411 60.2690822,19.9835616 L58.2331727,19.7342466 C54.2909115,19.2356164 52.3845599,17.3945205 52.3845599,14.6328767 C52.3845599,11.1424658 55.1793084,9.03287671 59.4547184,9.03287671 C62.2309587,9.03287671 64.7665914,9.8 66.4693521,11.0082192 Z M81.63996,9.39726027 L81.63996,12.2547945 L74.2551609,12.2547945 L74.2551609,21.1342466 C74.2551609,23.8767123 75.6617893,25.0657534 77.568141,25.0657534 C78.8637198,25.0657534 80.1592985,24.5479452 81.158745,23.8383562 L82.5838817,26.1972603 C81.2327781,27.2136986 79.4744926,28 77.3090252,28 C73.4963219,28 71.2198049,25.8328767 71.2198049,21.1917808 L71.2198049,12.2547945 L67.4626265,12.2547945 L67.4626265,9.39726027 L71.2198049,9.39726027 L71.2198049,3.68219178 L74.2551609,3.68219178 L74.2551609,9.39726027 L81.63996,9.39726027 Z M91.8503523,9.01369863 C96.6439938,9.01369863 100.086532,12.8684932 100.123548,18.4493151 C100.123548,18.8520548 100.086532,19.2739726 100.068023,19.6191781 L86.242347,19.6191781 C86.6680371,23.3972603 89.2036699,25.2575342 92.2205176,25.2575342 C94.2749354,25.2575342 96.1442705,24.4328767 97.6434402,23.090411 L99.2536596,25.2383562 C97.0696839,27.3479452 94.6265925,28 92.0354349,28 C86.8161033,28 83.1144496,24.1835616 83.1144496,18.5068493 C83.1144496,12.9068493 86.797595,9.01369863 91.8503523,9.01369863 Z M91.7948275,11.7945205 C88.6854384,11.7945205 86.7420702,13.9808219 86.2793635,17.0876712 L97.0326674,17.0876712 C96.662502,13.8657534 94.6451008,11.7945205 91.7948275,11.7945205 Z M111.314878,9.01369863 C112.57344,9.01369863 113.591395,9.18630137 114.535317,9.60821918 L113.794986,12.6958904 C112.962114,12.2356164 111.777585,11.9863014 110.778138,11.9863014 C108.094439,11.9863014 106.206596,14.1150685 106.206596,17.4712329 L106.206596,27.6164384 L103.189748,27.6164384 L103.189748,9.39726027 L106.169579,9.39726027 L106.169579,11.7945205 C107.391125,10.0109589 109.223444,9.01369863 111.314878,9.01369863 Z M119.71146,0 L119.71146,27.6164384 L116.694612,27.6164384 L116.694612,0 L119.71146,0 Z M127.127105,9.39726027 L127.127105,27.6164384 L124.110257,27.6164384 L124.110257,9.39726027 L127.127105,9.39726027 Z M125.590919,0.747945205 C126.793956,0.747945205 127.756386,1.7260274 127.756386,2.99178082 C127.756386,4.23835616 126.793956,5.17808219 125.590919,5.17808219 C124.387881,5.17808219 123.462468,4.23835616 123.462468,2.99178082 C123.462468,1.7260274 124.387881,0.747945205 125.590919,0.747945205 Z M140.280313,9.01369863 C144.611248,9.01369863 147.609588,11.9287671 147.609588,16.3013699 L147.609588,27.6164384 L144.574232,27.6164384 L144.574232,17.3178082 C144.574232,13.9616438 142.797438,11.9863014 139.743573,11.9863014 C136.911808,11.9863014 134.54275,14 134.54275,17.3945205 L134.54275,27.6164384 L131.525902,27.6164384 L131.525902,9.39726027 L134.524242,9.39726027 L134.524242,11.7753425 C135.967887,9.72328767 138.244404,9.01369863 140.280313,9.01369863 Z M154.840148,0 L154.840148,16.6849315 L157.246223,16.6849315 L163.779641,9.39726027 L167.592345,9.39726027 L159.744839,17.9890411 L167.703394,27.6164384 L163.872183,27.6164384 L157.227714,19.5232877 L154.840148,19.5232877 L154.840148,27.6164384 L151.8233,27.6164384 L151.8233,0 L154.840148,0 Z M197.703394,21.6328767 L199.202564,23.1287671 C196.833506,26.1589041 193.279918,27.9232877 189.374674,27.9232877 C182.397056,27.9232877 177.214741,22.7643836 177.214741,15.4 C177.214741,6.92328767 183.32247,0.479452055 191.466108,0.479452055 C194.186823,0.479452055 199.147039,1.30410959 201.756705,6.04109589 L200.016928,7.46027397 C198.110576,3.91232877 194.371906,2.72328767 191.33655,2.72328767 C184.655065,2.72328767 179.5838,8.1890411 179.5838,15.2082192 C179.5838,21.3643836 183.840701,25.660274 189.52274,25.660274 C192.761687,25.660274 195.760026,24.1452055 197.703394,21.6328767 Z M213.125048,16.6849315 L206.110415,16.6849315 L203.870914,27.6164384 L201.575889,27.6164384 L207.091353,0.767123288 L215.734714,0.767123288 C220.842996,0.767123288 223.785811,3.41369863 223.785811,7.59452055 C223.785811,12.6383562 220.343273,16.6849315 213.125048,16.6849315 Z M215.531123,2.97260274 L208.923671,2.97260274 L206.573121,14.460274 L213.21759,14.460274 C219.010678,14.460274 221.435261,11.4684932 221.435261,7.80547945 C221.435261,4.69863014 219.269793,2.97260274 215.531123,2.97260274 Z M246,3.62465753 L244.741438,5.50410959 C241.909673,3.31780822 238.707742,2.70410959 236.190618,2.70410959 C231.045319,2.70410959 228.990901,5.65753425 228.990901,8.24657534 C228.990901,10.739726 230.656646,12.2356164 234.339791,12.8684932 L236.690341,13.2712329 C240.928734,14.0191781 243.927074,15.9753425 243.927074,19.830137 C243.927074,24.2219178 240.33647,27.9232877 233.580952,27.9232877 C230.915761,27.9232877 226.584827,27.0986301 223.438421,24.3945205 L224.789525,22.4958904 C227.436207,24.9123288 231.35996,25.6986301 233.673493,25.6986301 C238.855808,25.6986301 241.558016,23.0712329 241.558016,20.0986301 C241.558016,17.6246575 239.651664,16.1863014 235.931502,15.5342466 L233.543935,15.1123288 C229.046426,14.3260274 226.603335,12.1013699 226.603335,8.53424658 C226.603335,4.62191781 229.601674,0.479452055 236.320176,0.479452055 C239.26299,0.479452055 242.927627,1.1890411 246,3.62465753 Z" id="Masterlink-CPS"></path>
                    </g>
                </g>
            </g>
        </g>
    </g>
</svg>